<svg xmlns="http://www.w3.org/2000/svg" viewBox="0 0 84.53 24.74"><title>able-logo</title><g id="Layer_2" data-name="Layer 2"><g id="Layer_1-2" data-name="Layer 1"><polygon points="5.1 8.12 14.08 2.96 8.97 0 0.01 5.18 5.1 8.12" style="fill:#27aae1"/><polygon points="0.01 15.53 5.1 12.59 5.1 2.22 0.01 5.18 0.01 15.53" style="fill:#1b75bc"/><polygon points="0.01 15.53 8.97 20.7 8.97 14.82 0 9.65 0.01 15.53" style="fill:#164375"/><polygon points="3.8 17.75 8.97 20.7 17.94 15.53 12.84 12.59 3.8 17.75" style="fill:#f15a29"/><polygon points="12.84 8.12 12.84 18.45 17.94 15.53 17.94 5.18 12.84 8.12" style="fill:#f7941d"/><polygon points="17.94 5.18 8.97 0 8.97 5.89 17.94 11.1 17.94 5.18" style="fill:#fbb040"/><polygon points="8.87 5.95 14.08 2.96 8.97 0 8.87 5.95" style="fill:#27aae1"/><path d="M28.42,16.17H25.15c-.56,0-.81-.24-.81-.8V9.49a10.37,10.37,0,0,1,.87-3.56L27.15.87A1.06,1.06,0,0,1,28.29.13h6a1,1,0,0,1,1.11.74l1.94,5.06a10.37,10.37,0,0,1,.87,3.56v5.88c0,.56-.24.8-.8.8H34c-.61,0-.87-.24-.87-.8V12.25h-4v3.12C29.22,15.93,29,16.17,28.42,16.17Zm1-8h3.49l-1-3.39c-.11-.27-.25-.38-.43-.38h-.55c-.18,0-.32.11-.43.38Z" style="fill:#164375"/><path d="M41.75,16.17c-.56,0-.8-.24-.8-.8V.94c0-.56.24-.81.8-.81h7.11c2.91,0,4.27,1.07,4.27,3.41V4.61A2.3,2.3,0,0,1,51.82,7c1.91.18,2.81,1.27,2.81,3.45v2c0,2.5-1.36,3.65-4.33,3.65ZM46,6.33h1.89c.58,0,.85-.29.85-.89V4.81c0-.6-.27-.89-.85-.89H46Zm0,6.06h2.9c.57,0,.84-.29.84-.89v-.87c0-.61-.27-.87-.84-.87H46Z" style="fill:#164375"/><path d="M57.9,16.17c-.55,0-.8-.24-.8-.8V.94c0-.56.25-.81.8-.81h3.46c.56,0,.8.25.8.81V12h3V8.35a.69.69,0,0,1,.8-.8h3.23c.56,0,.81.25.81.8v7c0,.56-.25.8-.81.8Z" style="fill:#164375"/><path d="M73.39,16.17c-.55,0-.8-.24-.8-.8V.94c0-.56.25-.81.8-.81H83.73c.56,0,.8.25.8.81v2.6c0,.56-.24.8-.8.8H77.58V6.06h4.35c.55,0,.8.24.8.8V9.25a.69.69,0,0,1-.8.8H77.58V12h6.15c.56,0,.8.25.8.81v2.6c0,.56-.24.8-.8.8Z" style="fill:#164375"/><path d="M28.34,20v4.65h-.67V22.6H25v2.07h-.67V20H25v2h2.66V20Z" style="fill:#164375"/><path d="M33.94,24.09v.58H30.57V20h3.27v.58H31.23V22h2.33v.56H31.23v1.5Z" style="fill:#164375"/><path d="M39,23.51H36.55L36,24.67h-.68L37.46,20h.66l2.11,4.65h-.7ZM38.79,23l-1-2.28-1,2.28Z" style="fill:#164375"/><path d="M42.33,20.6H40.74V20h3.83v.58H43v4.07h-.65Z" style="fill:#164375"/><path d="M46.19,20h.66v4.65h-.66Z" style="fill:#164375"/><path d="M53.07,20v4.65h-.54L49.74,21.2v3.47h-.66V20h.55l2.78,3.47V20Z" style="fill:#164375"/><path d="M58.57,22.32h.64v1.81a2.49,2.49,0,0,1-.8.44,3.11,3.11,0,0,1-1,.15,2.5,2.5,0,0,1-1.26-.31,2.21,2.21,0,0,1-.89-.85,2.47,2.47,0,0,1,0-2.43,2.15,2.15,0,0,1,.89-.85A2.57,2.57,0,0,1,57.46,20a2.76,2.76,0,0,1,1,.18,2.11,2.11,0,0,1,.77.54l-.41.41a1.86,1.86,0,0,0-1.35-.54,2,2,0,0,0-1,.23,1.63,1.63,0,0,0-.66.64,1.78,1.78,0,0,0,.66,2.47,2,2,0,0,0,.94.23,2,2,0,0,0,1.09-.3Z" style="fill:#164375"/><path d="M67.18,24.74l-.62-.62a2.32,2.32,0,0,1-2.38.45,1.3,1.3,0,0,1-.58-.43,1,1,0,0,1-.21-.63,1.14,1.14,0,0,1,.26-.75,2.94,2.94,0,0,1,.86-.67,2.88,2.88,0,0,1-.43-.55A1.19,1.19,0,0,1,64,21a.93.93,0,0,1,.34-.76,1.38,1.38,0,0,1,.91-.29,1.28,1.28,0,0,1,.84.26.88.88,0,0,1,.31.71,1,1,0,0,1-.22.63,3,3,0,0,1-.76.59l1.14,1.14a2.84,2.84,0,0,0,.29-.85l.51.17a3.25,3.25,0,0,1-.4,1.06l.62.63Zm-1-1-1.31-1.31a2.4,2.4,0,0,0-.67.49.8.8,0,0,0-.19.52.62.62,0,0,0,.29.53,1.23,1.23,0,0,0,.75.21A1.54,1.54,0,0,0,66.18,23.75ZM64.72,20.6a.55.55,0,0,0-.17.41.73.73,0,0,0,.09.35,2.8,2.8,0,0,0,.38.45,2.71,2.71,0,0,0,.63-.45.55.55,0,0,0,.18-.4.45.45,0,0,0-.17-.37.67.67,0,0,0-.45-.14A.74.74,0,0,0,64.72,20.6Z" style="fill:#164375"/><path d="M74.6,23.51H72.13l-.51,1.16h-.68L73,20h.66l2.11,4.65h-.7ZM74.37,23l-1-2.28-1,2.28Z" style="fill:#164375"/><path d="M77.41,20h.66v4.65h-.66Z" style="fill:#164375"/><path d="M83.4,24.67l-1-1.43H81v1.42H80.3V20h1.81a2.13,2.13,0,0,1,1.42.44,1.43,1.43,0,0,1,.52,1.18,1.54,1.54,0,0,1-.27.92,1.52,1.52,0,0,1-.75.55l1.1,1.56Zm-.35-2.25a1.08,1.08,0,0,0,0-1.55,1.48,1.48,0,0,0-1-.27H81v2.09h1.13A1.48,1.48,0,0,0,83.05,22.42Z" style="fill:#164375"/></g></g></svg>